<svg width="23" height="23" viewBox="0 0 23 23" fill="none" xmlns="http://www.w3.org/2000/svg">
<path d="M18.3529 22.6004C19.1352 22.6004 19.7693 21.9662 19.7693 21.184C19.7693 20.4017 19.1352 19.7676 18.3529 19.7676C17.5707 19.7676 16.9365 20.4017 16.9365 21.184C16.9365 21.9662 17.5707 22.6004 18.3529 22.6004Z" fill="#3A3845"/>
<path d="M8.43691 22.6004C9.21917 22.6004 9.85332 21.9662 9.85332 21.184C9.85332 20.4017 9.21917 19.7676 8.43691 19.7676C7.65465 19.7676 7.02051 20.4017 7.02051 21.184C7.02051 21.9662 7.65465 22.6004 8.43691 22.6004Z" fill="#3A3845"/>
<path d="M5.24921 5.24918H21.5379L19.2189 15.1046C18.9178 16.3842 17.776 17.2885 16.4615 17.2885H10.6167C9.33129 17.2885 8.20705 16.4231 7.87815 15.1806L5.24921 5.24918ZM5.24921 5.24918L4.18691 1H1" stroke="#3A3845" stroke-width="1.5" stroke-linecap="round" stroke-linejoin="round"/>
</svg>
