<svg width="23" height="23" viewBox="0 0 23 23" fill="none" xmlns="http://www.w3.org/2000/svg">
<path d="M18.3529 22.6004C19.1352 22.6004 19.7693 21.9662 19.7693 21.184C19.7693 20.4017 19.1352 19.7676 18.3529 19.7676C17.5707 19.7676 16.9365 20.4017 16.9365 21.184C16.9365 21.9662 17.5707 22.6004 18.3529 22.6004Z" fill="white"/>
<path d="M9.18097 21.184C9.18097 21.5949 8.84785 21.928 8.43691 21.928C8.02598 21.928 7.69286 21.5949 7.69286 21.184C7.69286 20.7731 8.02598 20.4399 8.43691 20.4399C8.84785 20.4399 9.18097 20.7731 9.18097 21.184Z" fill="white" stroke="white" stroke-width="1.3447"/>
<path d="M5.24921 5.24918H21.5379L19.2189 15.1046C18.9178 16.3842 17.776 17.2885 16.4615 17.2885H10.6167C9.33129 17.2885 8.20705 16.4231 7.87815 15.1806L5.24921 5.24918ZM5.24921 5.24918L4.18691 1H1" stroke="white" stroke-width="1.5" stroke-linecap="round" stroke-linejoin="round"/>
</svg>
